<svg xmlns="http://www.w3.org/2000/svg" xmlns:xlink="http://www.w3.org/1999/xlink" width="500" zoomAndPan="magnify" viewBox="0 0 375 76.499998" height="102" preserveAspectRatio="xMidYMid meet" version="1.0"><path fill="#000000" d="M 161.402344 35.605469 L 161.402344 62.875 L 165.929688 62.875 L 165.933594 50.550781 C 165.9375 37.171875 165.980469 36.625 167.285156 33.859375 C 168.160156 32.003906 170.484375 29.71875 172.414062 28.816406 C 173.351562 28.375 174.863281 27.953125 176.390625 27.703125 C 178.5 27.359375 179.179688 27.339844 181.101562 27.582031 C 186.046875 28.207031 188.875 30.105469 190.222656 33.710938 C 191.078125 35.992188 191.183594 37.847656 191.191406 50.550781 L 191.195312 62.875 L 195.503906 62.875 L 195.433594 48.761719 L 195.367188 34.652344 L 194.707031 32.789062 C 193.128906 28.332031 190.007812 25.457031 185.355469 24.175781 C 183.152344 23.566406 178.359375 23.433594 175.921875 23.910156 C 172.160156 24.648438 168.488281 26.945312 166.660156 29.699219 L 165.929688 30.804688 L 165.929688 8.335938 L 161.402344 8.335938 Z M 208.882812 9.925781 C 207.960938 10.378906 206.921875 12.011719 206.929688 13 C 206.941406 14.261719 207.757812 15.648438 208.804688 16.179688 C 210.019531 16.800781 211.03125 16.800781 212.308594 16.183594 C 213.496094 15.609375 214.074219 14.582031 214.074219 13.0625 C 214.070312 10.402344 211.304688 8.730469 208.882812 9.921875 M 39.011719 35.289062 C 32.328125 48.929688 26.570312 60.71875 26.214844 61.484375 L 25.574219 62.875 L 30.433594 62.859375 L 34 55.421875 C 35.960938 51.335938 40.558594 41.828125 44.214844 34.292969 C 47.875 26.761719 51.1875 19.902344 51.578125 19.050781 C 52.179688 17.742188 52.320312 17.578125 52.476562 17.992188 C 52.582031 18.261719 55.628906 24.65625 59.246094 32.207031 C 62.863281 39.757812 65.824219 46.046875 65.824219 46.1875 C 65.824219 46.363281 62.683594 46.441406 55.585938 46.441406 L 45.34375 46.441406 L 44.5 48.261719 C 44.039062 49.261719 43.660156 50.171875 43.660156 50.285156 C 43.660156 50.398438 49.136719 50.488281 55.828125 50.488281 L 67.996094 50.488281 L 71.003906 56.683594 L 74.011719 62.875 L 76.355469 62.875 C 77.640625 62.875 78.695312 62.792969 78.695312 62.695312 C 78.695312 62.597656 72.992188 50.808594 66.019531 36.5 L 53.347656 10.480469 L 52.257812 10.480469 L 51.167969 10.484375 Z M 294.261719 11.558594 C 288.878906 12.476562 284.269531 14.753906 280.4375 18.382812 C 277.238281 21.410156 275.003906 24.894531 273.578125 29.066406 C 271.792969 34.300781 271.789062 40.886719 273.570312 46.1875 C 274.140625 47.886719 274.148438 48.003906 273.75 48.226562 C 272.789062 48.769531 271.082031 50.554688 270.496094 51.621094 C 267.691406 56.773438 271.023438 63.042969 277.039062 63.945312 C 279.339844 64.289062 282.570312 63.082031 284.144531 61.292969 L 284.898438 60.4375 L 287.207031 61.523438 C 288.476562 62.121094 290.589844 62.90625 291.898438 63.269531 L 294.277344 63.933594 L 312.867188 64.015625 C 331.738281 64.097656 334.105469 64.019531 337.417969 63.199219 C 348.082031 60.558594 356.027344 51.285156 357.058594 40.277344 C 357.554688 34.976562 356.683594 30.277344 354.335938 25.601562 C 350.789062 18.53125 344.539062 13.664062 336.558594 11.757812 C 334.960938 11.378906 333.003906 11.335938 315.488281 11.285156 C 300.007812 11.242188 295.804688 11.296875 294.261719 11.558594 M 294.398438 13.457031 C 286.539062 14.828125 280.140625 19.628906 276.625 26.792969 C 274.734375 30.644531 274.273438 32.777344 274.265625 37.628906 C 274.261719 41.851562 274.625 43.914062 275.9375 47.136719 C 276.253906 47.917969 276.457031 48.710938 276.386719 48.894531 C 276.316406 49.078125 275.71875 49.480469 275.058594 49.789062 C 271.875 51.28125 270.523438 55.25 272.105469 58.480469 C 273.214844 60.738281 275.328125 61.992188 278.070312 62.015625 C 280.359375 62.035156 281.664062 61.324219 283.394531 59.121094 C 283.832031 58.566406 284.3125 58.109375 284.464844 58.109375 C 284.617188 58.109375 285.921875 58.699219 287.367188 59.421875 C 288.847656 60.164062 291.023438 61.015625 292.371094 61.378906 L 294.753906 62.023438 L 312.75 62.109375 C 331.609375 62.199219 334.253906 62.101562 337.550781 61.1875 C 345.902344 58.875 352.378906 52.269531 354.574219 43.820312 C 355.148438 41.625 355.398438 37.863281 355.148438 35.1875 C 354.621094 29.460938 352.46875 24.78125 348.429688 20.5625 C 344.707031 16.671875 340.421875 14.402344 335.050781 13.464844 C 333.269531 13.15625 330.121094 13.101562 314.566406 13.125 C 300.59375 13.140625 295.753906 13.222656 294.398438 13.457031 M 101.84375 23.953125 C 97.53125 25.113281 93.632812 28.789062 91.320312 33.886719 C 90.777344 35.078125 90.824219 35.382812 90.640625 29.292969 L 90.496094 24.410156 L 88.410156 24.34375 L 86.324219 24.273438 L 86.324219 62.875 L 90.804688 62.875 L 90.917969 54.597656 C 91.042969 45.546875 91.085938 45.171875 92.675781 40.011719 C 94.449219 34.253906 97.109375 30.378906 100.449219 28.671875 C 103.117188 27.308594 105.816406 27.121094 108.660156 28.105469 L 109.902344 28.535156 L 111.085938 26.949219 C 111.738281 26.078125 112.1875 25.277344 112.082031 25.167969 C 111.972656 25.0625 110.988281 24.660156 109.890625 24.277344 C 108.183594 23.683594 107.546875 23.585938 105.511719 23.597656 C 104.199219 23.601562 102.550781 23.765625 101.84375 23.953125 M 131.371094 23.734375 C 125.851562 24.46875 120.402344 27.617188 117.421875 31.789062 C 116.125 33.605469 114.839844 36.285156 114.277344 38.34375 C 113.667969 40.5625 113.675781 46.613281 114.292969 48.941406 C 114.90625 51.265625 116.601562 54.609375 118.085938 56.425781 C 124.082031 63.773438 136.285156 65.949219 145.550781 61.324219 C 147.710938 60.246094 151.152344 57.640625 151.152344 57.085938 C 151.152344 56.917969 150.578125 56.21875 149.875 55.527344 L 148.601562 54.265625 L 147.058594 55.433594 C 143.179688 58.367188 140.613281 59.292969 135.898438 59.464844 C 132.082031 59.605469 130.011719 59.253906 127.402344 58.011719 C 123.878906 56.34375 121.460938 54.019531 119.941406 50.847656 C 118.707031 48.277344 118.386719 46.800781 118.390625 43.703125 C 118.398438 38.964844 119.714844 35.699219 122.929688 32.449219 C 124.574219 30.785156 125.222656 30.316406 127.109375 29.425781 C 129.9375 28.09375 132.820312 27.507812 135.554688 27.714844 C 139.917969 28.042969 143.707031 29.605469 146.566406 32.242188 C 147.027344 32.671875 147.417969 32.871094 147.535156 32.734375 C 147.644531 32.609375 148.304688 31.890625 149.007812 31.132812 L 150.28125 29.753906 L 149.347656 28.792969 C 148.34375 27.761719 145.679688 26.003906 144.121094 25.34375 C 141.519531 24.242188 139.171875 23.785156 135.660156 23.703125 C 133.757812 23.65625 131.828125 23.671875 131.371094 23.734375 M 240.292969 23.726562 C 237.367188 24.292969 234.324219 25.464844 232.425781 26.753906 C 229.917969 28.457031 227.289062 31.464844 225.929688 34.175781 C 223.554688 38.917969 223.160156 45.558594 224.941406 50.796875 C 226.988281 56.804688 232.347656 61.4375 239.25 63.160156 C 242.328125 63.925781 247.855469 63.914062 250.882812 63.132812 C 254.8125 62.117188 258.320312 60.316406 261.023438 57.925781 L 262.09375 56.980469 L 260.917969 55.582031 C 260.273438 54.8125 259.722656 54.148438 259.699219 54.109375 C 259.671875 54.070312 258.917969 54.585938 258.015625 55.257812 C 256.035156 56.738281 252.648438 58.4375 250.542969 59.003906 C 249.347656 59.324219 248.085938 59.417969 245.058594 59.410156 C 241.453125 59.398438 240.96875 59.34375 239.21875 58.761719 C 233.101562 56.726562 229.109375 51.84375 228.46875 45.621094 L 228.308594 44.058594 L 245.238281 44.058594 C 259.394531 44.058594 262.191406 44.003906 262.296875 43.730469 C 262.515625 43.160156 262.007812 38.527344 261.515625 36.601562 C 259.9375 30.433594 255.652344 26.101562 249.339844 24.289062 C 248.003906 23.902344 246.734375 23.757812 244.226562 23.695312 C 242.390625 23.648438 240.621094 23.664062 240.292969 23.726562 M 208.523438 24.441406 C 208.429688 24.535156 208.355469 33.21875 208.355469 43.742188 L 208.355469 62.875 L 212.886719 62.875 L 212.824219 43.640625 L 212.765625 24.410156 L 210.726562 24.34375 C 209.605469 24.304688 208.613281 24.351562 208.523438 24.441406 M 240.542969 27.972656 C 236.164062 28.804688 232.097656 31.917969 230.105469 35.960938 C 229.140625 37.929688 228.535156 39.851562 228.800781 40.117188 C 228.964844 40.28125 257.328125 40.292969 257.492188 40.128906 C 257.6875 39.9375 257.261719 37.3125 256.835938 36.054688 C 254.835938 30.171875 247.675781 26.621094 240.542969 27.972656 M 293.800781 33.3125 C 290.601562 34.148438 288.988281 37.0625 289.894531 40.367188 C 290.253906 41.679688 292.054688 43.398438 293.496094 43.800781 C 295.707031 44.421875 298.488281 43.417969 299.617188 41.59375 C 301.210938 39.019531 300.371094 35.398438 297.835938 33.914062 C 296.75 33.28125 294.953125 33.011719 293.800781 33.3125 M 312.703125 33.328125 C 311.535156 33.554688 310.269531 34.4375 309.472656 35.574219 C 308.964844 36.304688 308.808594 36.839844 308.738281 38.113281 C 308.625 40.125 308.929688 41.082031 310.070312 42.257812 C 312.207031 44.464844 315.246094 44.636719 317.535156 42.679688 C 319.992188 40.578125 320.078125 36.839844 317.722656 34.601562 C 316.386719 33.332031 314.78125 32.925781 312.703125 33.328125 M 332.414062 33.210938 C 332.28125 33.261719 331.769531 33.371094 331.273438 33.453125 C 330.089844 33.652344 328.78125 34.828125 328.085938 36.316406 C 326.773438 39.140625 328.007812 42.332031 330.902344 43.578125 C 333.875 44.855469 337.414062 43.125 338.261719 39.976562 C 338.851562 37.78125 337.675781 34.953125 335.722656 33.882812 C 334.804688 33.375 332.949219 33 332.414062 33.210938 M 293.542969 35 C 292.671875 35.355469 291.558594 36.664062 291.398438 37.535156 C 291.175781 38.703125 291.40625 40.101562 291.929688 40.808594 C 293.078125 42.359375 295.535156 42.867188 297.019531 41.855469 C 298.375 40.9375 298.804688 40.144531 298.804688 38.582031 C 298.804688 37.019531 298.375 36.226562 297.019531 35.308594 C 296.199219 34.746094 294.535156 34.601562 293.542969 35 M 312.125 35.226562 C 310.84375 36.003906 310.246094 37.089844 310.253906 38.609375 C 310.269531 40.976562 311.957031 42.535156 314.300781 42.34375 C 316.464844 42.164062 317.796875 40.746094 317.824219 38.597656 C 317.851562 36.402344 316.25 34.769531 314.0625 34.773438 C 313.3125 34.773438 312.59375 34.941406 312.125 35.226562 M 331.570312 34.964844 C 328.667969 36.253906 328.390625 40.363281 331.101562 41.886719 C 333.601562 43.292969 336.527344 41.679688 336.761719 38.769531 C 336.878906 37.3125 336.3125 36.242188 334.933594 35.3125 C 334.128906 34.769531 332.410156 34.59375 331.570312 34.964844 M 267.375 64.3125 C 266.996094 64.425781 266.421875 64.761719 266.097656 65.0625 C 264.738281 66.332031 264.496094 67.859375 265.382812 69.539062 C 267.128906 72.839844 272.226562 71.625 272.230469 67.90625 C 272.230469 65.304688 269.875 63.5625 267.375 64.3125 M 267.097656 66.316406 C 265.457031 67.957031 267.3125 70.585938 269.476562 69.683594 C 270.34375 69.320312 270.945312 68.082031 270.652344 67.257812 C 270.09375 65.6875 268.21875 65.195312 267.097656 66.316406 " fill-opacity="1" fill-rule="evenodd"/><path fill="#000000" d="M 161.402344 35.605469 L 161.402344 62.875 L 165.929688 62.875 L 165.933594 50.550781 C 165.9375 37.171875 165.980469 36.625 167.285156 33.859375 C 168.160156 32.003906 170.484375 29.71875 172.414062 28.816406 C 173.351562 28.375 174.863281 27.953125 176.390625 27.703125 C 178.5 27.359375 179.179688 27.339844 181.101562 27.582031 C 186.046875 28.207031 188.875 30.105469 190.222656 33.710938 C 191.078125 35.992188 191.183594 37.847656 191.191406 50.550781 L 191.195312 62.875 L 195.503906 62.875 L 195.433594 48.761719 L 195.367188 34.652344 L 194.707031 32.789062 C 193.128906 28.332031 190.007812 25.457031 185.355469 24.175781 C 183.152344 23.566406 178.359375 23.433594 175.921875 23.910156 C 172.160156 24.648438 168.488281 26.945312 166.660156 29.699219 L 165.929688 30.804688 L 165.929688 8.335938 L 161.402344 8.335938 Z M 208.882812 9.925781 C 207.960938 10.378906 206.921875 12.011719 206.929688 13 C 206.941406 14.261719 207.757812 15.648438 208.804688 16.179688 C 210.019531 16.800781 211.03125 16.800781 212.308594 16.183594 C 213.496094 15.609375 214.074219 14.582031 214.074219 13.0625 C 214.070312 10.402344 211.304688 8.730469 208.882812 9.921875 M 39.011719 35.289062 C 32.328125 48.929688 26.570312 60.71875 26.214844 61.484375 L 25.574219 62.875 L 30.433594 62.859375 L 34 55.421875 C 35.960938 51.335938 40.558594 41.828125 44.214844 34.292969 C 47.875 26.761719 51.1875 19.902344 51.578125 19.050781 C 52.179688 17.742188 52.320312 17.578125 52.476562 17.992188 C 52.582031 18.261719 55.628906 24.65625 59.246094 32.207031 C 62.863281 39.757812 65.824219 46.046875 65.824219 46.1875 C 65.824219 46.363281 62.683594 46.441406 55.585938 46.441406 L 45.34375 46.441406 L 44.5 48.261719 C 44.039062 49.261719 43.660156 50.171875 43.660156 50.285156 C 43.660156 50.398438 49.136719 50.488281 55.828125 50.488281 L 67.996094 50.488281 L 71.003906 56.683594 L 74.011719 62.875 L 76.355469 62.875 C 77.640625 62.875 78.695312 62.792969 78.695312 62.695312 C 78.695312 62.597656 72.992188 50.808594 66.019531 36.5 L 53.347656 10.480469 L 52.257812 10.480469 L 51.167969 10.484375 Z M 294.261719 11.558594 C 288.878906 12.476562 284.269531 14.753906 280.4375 18.382812 C 277.238281 21.410156 275.003906 24.894531 273.578125 29.066406 C 271.792969 34.300781 271.789062 40.886719 273.570312 46.1875 C 274.140625 47.886719 274.148438 48.003906 273.75 48.226562 C 272.789062 48.769531 271.082031 50.554688 270.496094 51.621094 C 267.691406 56.773438 271.023438 63.042969 277.039062 63.945312 C 279.339844 64.289062 282.570312 63.082031 284.144531 61.292969 L 284.898438 60.4375 L 287.207031 61.523438 C 288.476562 62.121094 290.589844 62.90625 291.898438 63.269531 L 294.277344 63.933594 L 312.867188 64.015625 C 331.738281 64.097656 334.105469 64.019531 337.417969 63.199219 C 348.082031 60.558594 356.027344 51.285156 357.058594 40.277344 C 357.554688 34.976562 356.683594 30.277344 354.335938 25.601562 C 350.789062 18.53125 344.539062 13.664062 336.558594 11.757812 C 334.960938 11.378906 333.003906 11.335938 315.488281 11.285156 C 300.007812 11.242188 295.804688 11.296875 294.261719 11.558594 M 294.398438 13.457031 C 286.539062 14.828125 280.140625 19.628906 276.625 26.792969 C 274.734375 30.644531 274.273438 32.777344 274.265625 37.628906 C 274.261719 41.851562 274.625 43.914062 275.9375 47.136719 C 276.253906 47.917969 276.457031 48.710938 276.386719 48.894531 C 276.316406 49.078125 275.71875 49.480469 275.058594 49.789062 C 271.875 51.28125 270.523438 55.25 272.105469 58.480469 C 273.214844 60.738281 275.328125 61.992188 278.070312 62.015625 C 280.359375 62.035156 281.664062 61.324219 283.394531 59.121094 C 283.832031 58.566406 284.3125 58.109375 284.464844 58.109375 C 284.617188 58.109375 285.921875 58.699219 287.367188 59.421875 C 288.847656 60.164062 291.023438 61.015625 292.371094 61.378906 L 294.753906 62.023438 L 312.75 62.109375 C 331.609375 62.199219 334.253906 62.101562 337.550781 61.1875 C 345.902344 58.875 352.378906 52.269531 354.574219 43.820312 C 355.148438 41.625 355.398438 37.863281 355.148438 35.1875 C 354.621094 29.460938 352.46875 24.78125 348.429688 20.5625 C 344.707031 16.671875 340.421875 14.402344 335.050781 13.464844 C 333.269531 13.15625 330.121094 13.101562 314.566406 13.125 C 300.59375 13.140625 295.753906 13.222656 294.398438 13.457031 M 101.84375 23.953125 C 97.53125 25.113281 93.632812 28.789062 91.320312 33.886719 C 90.777344 35.078125 90.824219 35.382812 90.640625 29.292969 L 90.496094 24.410156 L 88.410156 24.34375 L 86.324219 24.273438 L 86.324219 62.875 L 90.804688 62.875 L 90.917969 54.597656 C 91.042969 45.546875 91.085938 45.171875 92.675781 40.011719 C 94.449219 34.253906 97.109375 30.378906 100.449219 28.671875 C 103.117188 27.308594 105.816406 27.121094 108.660156 28.105469 L 109.902344 28.535156 L 111.085938 26.949219 C 111.738281 26.078125 112.1875 25.277344 112.082031 25.167969 C 111.972656 25.0625 110.988281 24.660156 109.890625 24.277344 C 108.183594 23.683594 107.546875 23.585938 105.511719 23.597656 C 104.199219 23.601562 102.550781 23.765625 101.84375 23.953125 M 131.371094 23.734375 C 125.851562 24.46875 120.402344 27.617188 117.421875 31.789062 C 116.125 33.605469 114.839844 36.285156 114.277344 38.34375 C 113.667969 40.5625 113.675781 46.613281 114.292969 48.941406 C 114.90625 51.265625 116.601562 54.609375 118.085938 56.425781 C 124.082031 63.773438 136.285156 65.949219 145.550781 61.324219 C 147.710938 60.246094 151.152344 57.640625 151.152344 57.085938 C 151.152344 56.917969 150.578125 56.21875 149.875 55.527344 L 148.601562 54.265625 L 147.058594 55.433594 C 143.179688 58.367188 140.613281 59.292969 135.898438 59.464844 C 132.082031 59.605469 130.011719 59.253906 127.402344 58.011719 C 123.878906 56.34375 121.460938 54.019531 119.941406 50.847656 C 118.707031 48.277344 118.386719 46.800781 118.390625 43.703125 C 118.398438 38.964844 119.714844 35.699219 122.929688 32.449219 C 124.574219 30.785156 125.222656 30.316406 127.109375 29.425781 C 129.9375 28.09375 132.820312 27.507812 135.554688 27.714844 C 139.917969 28.042969 143.707031 29.605469 146.566406 32.242188 C 147.027344 32.671875 147.417969 32.871094 147.535156 32.734375 C 147.644531 32.609375 148.304688 31.890625 149.007812 31.132812 L 150.28125 29.753906 L 149.347656 28.792969 C 148.34375 27.761719 145.679688 26.003906 144.121094 25.34375 C 141.519531 24.242188 139.171875 23.785156 135.660156 23.703125 C 133.757812 23.65625 131.828125 23.671875 131.371094 23.734375 M 240.292969 23.726562 C 237.367188 24.292969 234.324219 25.464844 232.425781 26.753906 C 229.917969 28.457031 227.289062 31.464844 225.929688 34.175781 C 223.554688 38.917969 223.160156 45.558594 224.941406 50.796875 C 226.988281 56.804688 232.347656 61.4375 239.25 63.160156 C 242.328125 63.925781 247.855469 63.914062 250.882812 63.132812 C 254.8125 62.117188 258.320312 60.316406 261.023438 57.925781 L 262.09375 56.980469 L 260.917969 55.582031 C 260.273438 54.8125 259.722656 54.148438 259.699219 54.109375 C 259.671875 54.070312 258.917969 54.585938 258.015625 55.257812 C 256.035156 56.738281 252.648438 58.4375 250.542969 59.003906 C 249.347656 59.324219 248.085938 59.417969 245.058594 59.410156 C 241.453125 59.398438 240.96875 59.34375 239.21875 58.761719 C 233.101562 56.726562 229.109375 51.84375 228.46875 45.621094 L 228.308594 44.058594 L 245.238281 44.058594 C 259.394531 44.058594 262.191406 44.003906 262.296875 43.730469 C 262.515625 43.160156 262.007812 38.527344 261.515625 36.601562 C 259.9375 30.433594 255.652344 26.101562 249.339844 24.289062 C 248.003906 23.902344 246.734375 23.757812 244.226562 23.695312 C 242.390625 23.648438 240.621094 23.664062 240.292969 23.726562 M 208.523438 24.441406 C 208.429688 24.535156 208.355469 33.21875 208.355469 43.742188 L 208.355469 62.875 L 212.886719 62.875 L 212.824219 43.640625 L 212.765625 24.410156 L 210.726562 24.34375 C 209.605469 24.304688 208.613281 24.351562 208.523438 24.441406 M 240.542969 27.972656 C 236.164062 28.804688 232.097656 31.917969 230.105469 35.960938 C 229.140625 37.929688 228.535156 39.851562 228.800781 40.117188 C 228.964844 40.28125 257.328125 40.292969 257.492188 40.128906 C 257.6875 39.9375 257.261719 37.3125 256.835938 36.054688 C 254.835938 30.171875 247.675781 26.621094 240.542969 27.972656 M 293.800781 33.3125 C 290.601562 34.148438 288.988281 37.0625 289.894531 40.367188 C 290.253906 41.679688 292.054688 43.398438 293.496094 43.800781 C 295.707031 44.421875 298.488281 43.417969 299.617188 41.59375 C 301.210938 39.019531 300.371094 35.398438 297.835938 33.914062 C 296.75 33.28125 294.953125 33.011719 293.800781 33.3125 M 312.703125 33.328125 C 311.535156 33.554688 310.269531 34.4375 309.472656 35.574219 C 308.964844 36.304688 308.808594 36.839844 308.738281 38.113281 C 308.625 40.125 308.929688 41.082031 310.070312 42.257812 C 312.207031 44.464844 315.246094 44.636719 317.535156 42.679688 C 319.992188 40.578125 320.078125 36.839844 317.722656 34.601562 C 316.386719 33.332031 314.78125 32.925781 312.703125 33.328125 M 332.414062 33.210938 C 332.28125 33.261719 331.769531 33.371094 331.273438 33.453125 C 330.089844 33.652344 328.78125 34.828125 328.085938 36.316406 C 326.773438 39.140625 328.007812 42.332031 330.902344 43.578125 C 333.875 44.855469 337.414062 43.125 338.261719 39.976562 C 338.851562 37.78125 337.675781 34.953125 335.722656 33.882812 C 334.804688 33.375 332.949219 33 332.414062 33.210938 M 293.542969 35 C 292.671875 35.355469 291.558594 36.664062 291.398438 37.535156 C 291.175781 38.703125 291.40625 40.101562 291.929688 40.808594 C 293.078125 42.359375 295.535156 42.867188 297.019531 41.855469 C 298.375 40.9375 298.804688 40.144531 298.804688 38.582031 C 298.804688 37.019531 298.375 36.226562 297.019531 35.308594 C 296.199219 34.746094 294.535156 34.601562 293.542969 35 M 312.125 35.226562 C 310.84375 36.003906 310.246094 37.089844 310.253906 38.609375 C 310.269531 40.976562 311.957031 42.535156 314.300781 42.34375 C 316.464844 42.164062 317.796875 40.746094 317.824219 38.597656 C 317.851562 36.402344 316.25 34.769531 314.0625 34.773438 C 313.3125 34.773438 312.59375 34.941406 312.125 35.226562 M 331.570312 34.964844 C 328.667969 36.253906 328.390625 40.363281 331.101562 41.886719 C 333.601562 43.292969 336.527344 41.679688 336.761719 38.769531 C 336.878906 37.3125 336.3125 36.242188 334.933594 35.3125 C 334.128906 34.769531 332.410156 34.59375 331.570312 34.964844 M 267.375 64.3125 C 266.996094 64.425781 266.421875 64.761719 266.097656 65.0625 C 264.738281 66.332031 264.496094 67.859375 265.382812 69.539062 C 267.128906 72.839844 272.226562 71.625 272.230469 67.90625 C 272.230469 65.304688 269.875 63.5625 267.375 64.3125 M 267.097656 66.316406 C 265.457031 67.957031 267.3125 70.585938 269.476562 69.683594 C 270.34375 69.320312 270.945312 68.082031 270.652344 67.257812 C 270.09375 65.6875 268.21875 65.195312 267.097656 66.316406 " fill-opacity="1" fill-rule="evenodd"/></svg>